PathFileType	4	(X/Y/Z)	D:\TRACE\v60_Jaco2_6-2-23\JustBodyDRS_Motion2_9-v60.trc
DataRate	CameraRate	NumFrames	NumMarkers	Units	OrigDataRate	OrigDataStartFrame	OrigNumFrames
100.00	100.00	      21	9	mm	100.00	862	      6895
Frame#	Time	front left toe			Front right toe			aft left toe			aft right toe			Arm			FL body			FR body			AL Body			AR Body			
		X1	Y1	Z1	X2	Y2	Z2	X3	Y3	Z3	X4	Y4	Z4	X5	Y5	Z5	X6	Y6	Z6	X7	Y7	Z7	X8	Y8	Z8	X9	Y9	Z9	

862	8.610	-150.77631	37.75328	-241.27806	170.97464	32.62400	-262.15622	-180.60999	-6.14157	379.10217	311.05429	20.14081	339.94308	-92.82809	1207.99963	-369.84280	-65.31039	577.97729	-385.37799	94.10046	578.07428	-400.40622	22.67840	545.83282	555.74652	177.29265	539.25879	540.45575	
863	8.620	-150.39255	38.62463	-242.33061	171.14867	33.20605	-261.64880	-179.79779	-6.70426	379.62582	313.13535	11.90460	341.57321	-91.93669	1209.07495	-366.69501	-63.33307	579.32996	-383.83646	95.72033	579.68640	-399.20087	25.95115	544.60376	557.08350	180.69398	538.64313	542.27808	
864	8.630	-149.86296	39.74090	-241.10564	171.38657	33.51180	-261.49786	-180.17198	-6.52914	379.75278	315.73138	-0.52094	340.71259	-90.02849	1210.79858	-362.95773	-61.56031	580.25903	-382.20068	98.15256	581.41888	-398.08569	29.09395	543.48273	558.48962	187.35591	539.67120	545.52069	
865	8.640	-149.80316	40.46246	-241.06226	171.35229	33.62096	-261.30798	-180.80469	-5.77959	379.67886	317.61465	-4.05329	337.01883	-87.56251	1213.06360	-359.01456	-59.27520	580.86688	-380.69495	100.55285	582.43335	-396.43689	32.08270	543.20691	559.86975	189.70927	540.77557	547.99890	
866	8.650	-149.49533	40.59248	-240.74733	172.19269	34.32842	-260.95343	-179.17575	-6.11820	380.21484	318.84848	-3.21447	340.33243	-85.74574	1215.02698	-355.40652	-57.00692	580.71527	-379.19879	102.81079	583.26178	-394.77512	34.48048	544.76959	561.02521	192.14702	542.55084	549.35596	
867	8.660	-147.00912	40.26150	-237.52148	173.96355	37.91012	-259.47037	-175.81081	-3.40388	380.77277	317.95490	-3.94067	343.49634	-85.17133	1216.51685	-353.00510	-54.71178	582.57684	-377.62589	104.62833	584.46765	-393.38165	37.48879	545.52734	562.99292	194.91559	543.35107	550.63629	
868	8.670	-145.68515	41.27612	-235.46437	173.63033	42.48386	-256.21603	-169.77396	-0.29388	384.08572	317.98441	-5.29785	341.34509	-85.69038	1216.63794	-351.43994	-52.25728	585.02045	-376.45013	106.89265	586.47327	-391.86719	40.03555	544.62396	564.27820	197.80138	542.51147	552.35938	
869	8.680	-144.23303	41.69419	-235.12053	173.49532	51.01270	-253.63383	-164.14607	2.75031	386.86758	318.35065	-6.08805	342.61554	-85.90448	1216.44958	-350.50632	-50.27545	587.07654	-375.15359	109.06342	589.22168	-391.04581	41.93118	542.84839	565.08002	196.54103	538.01605	549.03082	
870	8.690	-144.04124	41.46118	-234.66833	174.20656	61.99088	-252.53471	-159.52304	12.18616	385.56851	318.20059	-6.93259	342.16287	-84.85575	1217.07703	-348.37692	-49.22866	588.83069	-374.09134	110.69484	591.21484	-390.13315	43.81757	541.34705	565.69342	199.08092	537.52808	550.46606	
871	8.700	-145.22234	41.74402	-235.09413	177.60001	75.49389	-253.16183	-153.99063	20.81963	383.75470	317.97214	-6.96541	342.17044	-81.51603	1219.42139	-344.97855	-48.06251	589.54456	-373.60168	111.50922	592.18707	-389.78418	46.17908	540.54272	566.41425	201.26431	537.03772	550.86768	
872	8.710	-145.77449	41.74106	-234.52815	182.01054	88.58781	-254.89034	-149.78549	33.88629	380.94928	317.65060	-7.60254	342.60477	-79.08450	1222.11902	-342.00220	-47.63951	590.48474	-373.03308	112.43745	592.90497	-389.29935	48.44006	539.99878	566.73615	203.74016	535.98322	550.90436	
873	8.720	-145.92165	42.21376	-234.23753	186.72975	102.11234	-257.36411	-146.42520	45.68373	379.98056	317.44382	-8.52326	342.42123	-77.72455	1224.21375	-338.52246	-46.61961	591.54419	-372.11856	112.40128	594.12750	-388.66739	50.62884	538.22296	567.18774	205.91199	534.45392	551.14954	
874	8.730	-146.05980	42.47449	-234.27431	190.87759	115.43104	-260.16321	-141.64403	56.16403	380.10583	317.61047	-9.09439	342.41727	-77.24657	1225.41382	-335.60150	-46.26565	592.99469	-371.52179	112.68339	595.79034	-388.33200	52.87296	536.49182	568.11945	207.92838	532.80017	551.60846	
875	8.740	-146.38927	42.61099	-234.19894	194.88261	127.85387	-262.93631	-136.97336	68.08135	379.07462	317.36234	-9.50500	342.49231	-77.16425	1225.72241	-332.73669	-45.99214	594.24695	-370.89536	113.11838	596.79974	-387.97128	54.32814	534.37299	567.87170	210.55757	531.33319	551.30432	
876	8.750	-146.70834	42.71320	-234.01228	198.52179	140.48276	-265.94916	-130.59700	77.76546	378.71613	316.80530	-9.75578	342.61328	-77.62138	1226.27661	-330.77731	-45.31241	595.61273	-370.15897	113.58342	597.81812	-387.64645	56.53654	532.99738	568.35864	212.21117	529.68237	551.46118	
877	8.760	-147.21011	42.95431	-233.83800	200.88559	152.13602	-268.46094	-125.41901	87.63259	378.14542	316.38818	-10.22885	342.58099	-76.76998	1226.64465	-328.75467	-44.96424	596.71906	-369.53864	114.38383	598.69537	-386.88672	58.00252	531.33179	568.49860	213.86104	527.75287	552.12878	
878	8.770	-147.90320	43.30326	-233.66725	202.68663	162.88663	-270.66690	-120.45422	96.68556	377.78961	316.07068	-10.62118	342.73935	-75.84877	1227.73132	-326.85300	-44.99115	597.47852	-369.12097	114.10009	599.75641	-386.41129	59.52684	529.90002	568.95966	215.76418	526.32874	551.81519	
879	8.780	-148.13634	43.55289	-233.61224	205.52138	170.09146	-271.87729	-115.71829	104.30124	377.21426	315.99307	-10.99080	342.67542	-74.58102	1228.93774	-324.73956	-45.28108	598.55536	-368.30209	114.46152	600.64178	-386.48169	61.72814	528.44757	569.53729	217.09428	524.90887	551.81714	
880	8.790	-148.44548	43.92123	-233.37477	207.75208	174.07323	-272.98422	-110.16412	108.30353	377.37610	315.98013	-11.45973	342.78152	-73.67652	1229.88342	-322.52228	-45.36982	599.07483	-367.65564	114.26451	601.12433	-386.32513	63.21067	527.53430	569.45685	218.94675	523.91022	551.55505	
881	8.800	-148.95738	44.04443	-233.06293	210.78452	175.05656	-273.29584	-103.92269	109.09396	378.49811	315.46652	-12.17893	342.61475	-73.22859	1230.61951	-320.53098	-45.49870	599.25031	-366.96780	113.91296	601.32733	-386.05725	64.73209	526.57703	569.99609	220.71021	523.13135	551.84985	
882	8.810	-149.21207	43.92465	-232.82030	213.26395	173.40721	-273.59650	-98.78990	107.24387	380.69067	315.31952	-12.47130	342.78674	-73.25956	1231.06067	-318.74368	-45.62690	599.50494	-366.37534	113.35500	601.51624	-385.75507	66.29364	526.35919	570.23248	222.16805	522.49542	552.03168	
